<?xml version="1.0"?>
<svg xmlns="http://www.w3.org/2000/svg" xmlns:xlink="http://www.w3.org/1999/xlink" xmlns:svgjs="http://svgjs.com/svgjs" version="1.1" width="512" height="512" x="0" y="0" viewBox="0 0 483.5 483.5" style="enable-background:new 0 0 512 512" xml:space="preserve" class=""><g>
<g xmlns="http://www.w3.org/2000/svg">
	<g>
		<path d="M430.75,471.2v-67.8c0-83.9-55-155.2-130.7-179.8c36.4-20.5,61.1-59.5,61.1-104.2c0-65.8-53.6-119.4-119.4-119.4    s-119.4,53.6-119.4,119.4c0,44.7,24.7,83.7,61.1,104.2c-75.8,24.6-130.7,95.9-130.7,179.8v67.8c0,6.8,5.5,12.3,12.3,12.3h353.6    C425.25,483.4,430.75,478,430.75,471.2z M146.75,119.4c0-52.3,42.6-94.9,94.9-94.9s94.9,42.6,94.9,94.9s-42.6,94.9-94.9,94.9    S146.75,171.7,146.75,119.4z M406.25,458.9H77.05v-55.6c0-90.7,73.8-164.6,164.6-164.6s164.6,73.8,164.6,164.6V458.9z" fill="#00303f" data-original="#000000" style="" class=""/>
	</g>
</g>
<g xmlns="http://www.w3.org/2000/svg">
</g>
<g xmlns="http://www.w3.org/2000/svg">
</g>
<g xmlns="http://www.w3.org/2000/svg">
</g>
<g xmlns="http://www.w3.org/2000/svg">
</g>
<g xmlns="http://www.w3.org/2000/svg">
</g>
<g xmlns="http://www.w3.org/2000/svg">
</g>
<g xmlns="http://www.w3.org/2000/svg">
</g>
<g xmlns="http://www.w3.org/2000/svg">
</g>
<g xmlns="http://www.w3.org/2000/svg">
</g>
<g xmlns="http://www.w3.org/2000/svg">
</g>
<g xmlns="http://www.w3.org/2000/svg">
</g>
<g xmlns="http://www.w3.org/2000/svg">
</g>
<g xmlns="http://www.w3.org/2000/svg">
</g>
<g xmlns="http://www.w3.org/2000/svg">
</g>
<g xmlns="http://www.w3.org/2000/svg">
</g>
</g></svg>
